# xmcd CD database file
#
# Track frame offsets:
#	150
#	15973
#	35377
#	49633
#	65783
#	77989
#	96222
#	112766
#	126167
#	142090
#
# Disc length: 2147 seconds
#
# Revision: 0
# Processed by: cddbd v1.5.1PL2 Copyright (c) Steve Scherf et al.
# Submitted via: CDex 1.51
#
DISCID=8008610a
DTITLE=Nervous Investors - Bad Hair Day
DYEAR=2002
DGENRE=Blues
TTITLE0=Lady In The Room
TTITLE1=Chasing You
TTITLE2=Bad Hair Day
TTITLE3=Hurt Somebody
TTITLE4=Mouse To Mouse
TTITLE5=Big Ol Man
TTITLE6=No Secret
TTITLE7=Goat Boat Boogie
TTITLE8=Main Squeeze
TTITLE9=Mr Sheen
EXTD=YEAR: 2002
EXTT0=
EXTT1=
EXTT2=
EXTT3=
EXTT4=
EXTT5=
EXTT6=
EXTT7=
EXTT8=
EXTT9=
PLAYORDER=
